<?xml version="1.0" encoding="utf-8"?>
<!-- Generator: Adobe Illustrator 24.1.0, SVG Export Plug-In . SVG Version: 6.00 Build 0)  -->
<svg version="1.1" id="Capa_1" xmlns="http://www.w3.org/2000/svg" xmlns:xlink="http://www.w3.org/1999/xlink" x="0px" y="0px"
	 viewBox="0 0 35.7 35.7" style="enable-background:new 0 0 35.7 35.7;" xml:space="preserve">
<style type="text/css">
	.st0{fill:#666666;}
</style>
<g>
	<path class="st0" d="M32.3,26.2c-0.1,0.3-0.2,0.6-0.3,0.8c-0.9,2.4-2.2,4.5-3.9,6.5c-0.3,0.4-0.7,0.7-1.1,1c-0.7,0.6-1.6,1-2.6,1.1
		c-0.7,0-1.5-0.1-2.2-0.4c-0.5-0.2-1-0.4-1.5-0.6c-1.7-0.6-3.3-0.5-4.9,0.1c-0.6,0.2-1.2,0.5-1.8,0.7c-0.7,0.2-1.4,0.3-2.1,0.2
		c-0.6-0.1-1.2-0.4-1.7-0.8c-0.6-0.5-1.2-1.1-1.7-1.7c-2.4-2.9-4-6.2-4.8-9.9c-0.3-1.6-0.5-3.2-0.4-4.8C3.5,16.5,4,14.6,5,13
		c1.3-2.1,3.1-3.5,5.6-4c1.5-0.3,2.9-0.2,4.3,0.3c0.7,0.3,1.5,0.6,2.2,0.8c0.7,0.3,1.3,0.3,2,0c0.7-0.3,1.5-0.6,2.3-0.9
		c0.8-0.3,1.6-0.5,2.4-0.6c1.2-0.1,2.4,0.1,3.6,0.4c1.6,0.6,3,1.5,4,2.9c0,0,0.1,0.1,0.1,0.1c-2.6,1.8-4,4.1-3.8,7.3
		C27.8,22.6,29.5,24.8,32.3,26.2z M18,8.3c0.8,0,1.5-0.1,2.2-0.4c3.2-1.3,4.8-4.6,4.8-7.2c0-0.2,0-0.4,0-0.7c-0.3,0-0.6,0.1-0.9,0.1
		c-2.3,0.6-4.1,1.9-5.3,4c-0.7,1.2-1.1,2.5-1,4C17.8,8.2,17.8,8.3,18,8.3z"/>
</g>
</svg>
